<mxfile host="Electron" agent="Mozilla/5.0 (Windows NT 10.0; Win64; x64) AppleWebKit/537.36 (KHTML, like Gecko) draw.io/26.2.2 Chrome/134.0.6998.178 Electron/35.1.2 Safari/537.36" version="26.2.2">
  <diagram name="Page-1" id="zJsmkSdRsn1cajQt-UeN">
    <mxGraphModel dx="2068" dy="1202" grid="1" gridSize="10" guides="1" tooltips="1" connect="1" arrows="1" fold="1" page="1" pageScale="1" pageWidth="827" pageHeight="1169" math="1" shadow="0">
      <root>
        <mxCell id="0" />
        <mxCell id="1" parent="0" />
        <mxCell id="YM7Ial_qLrjVKoZ3OGOI-1" value="&lt;span style=&quot;font-size: 24px;&quot;&gt;$$P(\theta|x)$$&lt;/span&gt;" style="text;html=1;align=center;verticalAlign=middle;whiteSpace=wrap;rounded=0;" vertex="1" parent="1">
          <mxGeometry x="569" y="340" width="60" height="30" as="geometry" />
        </mxCell>
        <mxCell id="YM7Ial_qLrjVKoZ3OGOI-2" value="&lt;span style=&quot;font-size: 24px;&quot;&gt;$$P(\theta)$$&lt;/span&gt;" style="text;html=1;align=center;verticalAlign=middle;whiteSpace=wrap;rounded=0;" vertex="1" parent="1">
          <mxGeometry x="219" y="340" width="60" height="30" as="geometry" />
        </mxCell>
        <mxCell id="YM7Ial_qLrjVKoZ3OGOI-3" value="&lt;span style=&quot;font-size: 24px;&quot;&gt;$$P(x|\theta)$$&lt;/span&gt;" style="text;html=1;align=center;verticalAlign=middle;whiteSpace=wrap;rounded=0;" vertex="1" parent="1">
          <mxGeometry x="389" y="340" width="60" height="30" as="geometry" />
        </mxCell>
        <mxCell id="YM7Ial_qLrjVKoZ3OGOI-4" value="&lt;font style=&quot;font-size: 18px;&quot;&gt;Prior Probabilty Distribution&lt;/font&gt;" style="text;html=1;align=center;verticalAlign=middle;whiteSpace=wrap;rounded=0;" vertex="1" parent="1">
          <mxGeometry x="199.75" y="400" width="98.5" height="30" as="geometry" />
        </mxCell>
        <mxCell id="YM7Ial_qLrjVKoZ3OGOI-5" value="&lt;font style=&quot;font-size: 18px;&quot;&gt;Likelihood Function&lt;/font&gt;" style="text;html=1;align=center;verticalAlign=middle;whiteSpace=wrap;rounded=0;" vertex="1" parent="1">
          <mxGeometry x="394" y="400" width="60" height="30" as="geometry" />
        </mxCell>
        <mxCell id="YM7Ial_qLrjVKoZ3OGOI-6" value="&lt;font style=&quot;font-size: 18px;&quot;&gt;Posterior Distribution&lt;/font&gt;" style="text;html=1;align=center;verticalAlign=middle;whiteSpace=wrap;rounded=0;" vertex="1" parent="1">
          <mxGeometry x="569" y="400" width="60" height="30" as="geometry" />
        </mxCell>
        <mxCell id="YM7Ial_qLrjVKoZ3OGOI-7" value="" style="endArrow=none;html=1;rounded=0;exitX=0.5;exitY=0;exitDx=0;exitDy=0;" edge="1" parent="1" source="YM7Ial_qLrjVKoZ3OGOI-2">
          <mxGeometry width="50" height="50" relative="1" as="geometry">
            <mxPoint x="250" y="320" as="sourcePoint" />
            <mxPoint x="420" y="250" as="targetPoint" />
          </mxGeometry>
        </mxCell>
        <mxCell id="YM7Ial_qLrjVKoZ3OGOI-8" value="" style="endArrow=none;html=1;rounded=0;entryX=0.5;entryY=0;entryDx=0;entryDy=0;" edge="1" parent="1" target="YM7Ial_qLrjVKoZ3OGOI-1">
          <mxGeometry width="50" height="50" relative="1" as="geometry">
            <mxPoint x="420" y="250" as="sourcePoint" />
            <mxPoint x="430" y="220" as="targetPoint" />
          </mxGeometry>
        </mxCell>
        <mxCell id="YM7Ial_qLrjVKoZ3OGOI-9" value="&lt;font style=&quot;font-size: 18px;&quot;&gt;Conjugate Distributions with respect to the Likelihood Function&lt;/font&gt;" style="text;html=1;align=center;verticalAlign=middle;whiteSpace=wrap;rounded=0;" vertex="1" parent="1">
          <mxGeometry x="284" y="200" width="279" height="50" as="geometry" />
        </mxCell>
        <mxCell id="YM7Ial_qLrjVKoZ3OGOI-10" value="&lt;font style=&quot;font-size: 18px;&quot;&gt;Conjugate Prior for the Likelihood Function&lt;/font&gt;" style="text;html=1;align=center;verticalAlign=middle;whiteSpace=wrap;rounded=0;" vertex="1" parent="1">
          <mxGeometry x="204" y="512" width="190" height="50" as="geometry" />
        </mxCell>
        <mxCell id="YM7Ial_qLrjVKoZ3OGOI-11" value="" style="endArrow=none;html=1;rounded=0;" edge="1" parent="1">
          <mxGeometry width="50" height="50" relative="1" as="geometry">
            <mxPoint x="250" y="450" as="sourcePoint" />
            <mxPoint x="340" y="480" as="targetPoint" />
          </mxGeometry>
        </mxCell>
        <mxCell id="YM7Ial_qLrjVKoZ3OGOI-12" value="" style="endArrow=none;html=1;rounded=0;" edge="1" parent="1">
          <mxGeometry width="50" height="50" relative="1" as="geometry">
            <mxPoint x="430" y="440" as="sourcePoint" />
            <mxPoint x="340" y="480" as="targetPoint" />
          </mxGeometry>
        </mxCell>
        <mxCell id="YM7Ial_qLrjVKoZ3OGOI-13" value="" style="endArrow=classic;html=1;rounded=0;" edge="1" parent="1">
          <mxGeometry width="50" height="50" relative="1" as="geometry">
            <mxPoint x="247.63" y="510" as="sourcePoint" />
            <mxPoint x="247.63" y="460" as="targetPoint" />
          </mxGeometry>
        </mxCell>
        <mxCell id="YM7Ial_qLrjVKoZ3OGOI-14" style="edgeStyle=orthogonalEdgeStyle;rounded=0;orthogonalLoop=1;jettySize=auto;html=1;exitX=0.5;exitY=1;exitDx=0;exitDy=0;" edge="1" parent="1" source="YM7Ial_qLrjVKoZ3OGOI-2" target="YM7Ial_qLrjVKoZ3OGOI-2">
          <mxGeometry relative="1" as="geometry" />
        </mxCell>
      </root>
    </mxGraphModel>
  </diagram>
</mxfile>
